<?xml version="1.0" standalone="no"?>
<!DOCTYPE svg PUBLIC "-//W3C//DTD SVG 20010904//EN" "http://www.w3.org/TR/2001/REC-SVG-20010904/DTD/svg10.dtd">
<!-- Created using Krita: https://krita.org -->
<svg xmlns="http://www.w3.org/2000/svg" 
    xmlns:xlink="http://www.w3.org/1999/xlink"
    xmlns:krita="http://krita.org/namespaces/svg/krita"
    xmlns:sodipodi="http://sodipodi.sourceforge.net/DTD/sodipodi-0.dtd"
    width="85.92pt"
    height="86.88pt"
    viewBox="0 0 85.92 86.88">
<defs/>
<circle id="shape0" transform="matrix(1.00000002296572 0 0 1.00000002296572 -0.239998297659905 0.240000490576037)" r="42.72" cx="42.72" cy="42.72" fill="#bb0006" fill-rule="evenodd" stroke-opacity="0" stroke="#000000" stroke-width="0" stroke-linecap="square" stroke-linejoin="bevel"/><path id="shape01" transform="matrix(1.00000003205919 0 0 1.00000003205919 0 32.6399996988796)" fill="#ffffff" fill-rule="evenodd" stroke-opacity="0" stroke="#000000" stroke-width="0" stroke-linecap="square" stroke-linejoin="bevel" d="M0 0.255001L12.72 0L12.72 19.68L0.225 19.68Z" sodipodi:nodetypes="ccccc"/><path id="shape01" transform="matrix(1.00000001232314 0 0 1.00000001232314 32.4562011236177 72.2399998536007)" fill="#ffffff" fill-rule="evenodd" stroke-opacity="0" stroke="#000000" stroke-width="0" stroke-linecap="square" stroke-linejoin="bevel" d="M0.183798 0L19.8638 0L19.7707 13.9068L0 13.8432Z" sodipodi:nodetypes="ccccc"/><path id="shape02" transform="matrix(0.999999979578958 0 0 0.999999979578958 72.239999728269 32.6400002152851)" fill="#ffffff" fill-rule="evenodd" stroke-opacity="0" stroke="#000000" stroke-width="0" stroke-linecap="square" stroke-linejoin="bevel" d="M0 0L13.68 0.0283334L13.68 19.7142L0 19.68Z" sodipodi:nodetypes="ccccc"/><path id="shape011" transform="matrix(0.999999999002987 0 0 0.999999999002987 32.6399995766184 -0.064202805593944)" fill="#ffffff" fill-rule="evenodd" stroke-opacity="0" stroke="#000000" stroke-width="0" stroke-linecap="square" stroke-linejoin="bevel" d="M0.480002 0.0642028C6.11159 -0.077667 11.7247 0.0696961 19.02 0.00420276L19.68 12.7842L0 12.7842Z" sodipodi:nodetypes="ccccc"/><path id="shape021" transform="matrix(0.698271859856122 -0.715832682430121 0.715832682430121 0.698271859856122 8.6907088440375 70.2449457442453)" fill="#ffffff" fill-rule="evenodd" stroke-opacity="0" stroke="#000000" stroke-width="0" stroke-linecap="square" stroke-linejoin="bevel" d="M0 0.839126L13.7092 0L13.7092 9.6L0.202288 9.91734Z" sodipodi:nodetypes="ccccc"/><path id="shape011" transform="matrix(0.698271846075001 -0.715832668302422 0.715832668302422 0.698271846075001 60.2641609226843 66.8680901490161)" fill="#ffffff" fill-rule="evenodd" stroke-opacity="0" stroke="#000000" stroke-width="0" stroke-linecap="square" stroke-linejoin="bevel" d="M0.239613 0L9.83961 0L8.79044 13.6841L0 13.665Z" sodipodi:nodetypes="ccccc"/><path id="shape021" transform="matrix(0.698271823210655 -0.715832644863065 0.715832644863065 0.698271823210655 60.171522185678 18.1635537039496)" fill="#ffffff" fill-rule="evenodd" stroke-opacity="0" stroke="#000000" stroke-width="0" stroke-linecap="square" stroke-linejoin="bevel" d="M0 0L12.7691 0.627344L12.5554 10.1021L0 9.6Z" sodipodi:nodetypes="ccccc"/><path id="shape012" transform="matrix(0.698271836773912 -0.715832658767421 0.715832658767421 0.698271836773912 8.34000040400168 16.4400007963774)" fill="#ffffff" fill-rule="evenodd" stroke-opacity="0" stroke="#000000" stroke-width="0" stroke-linecap="square" stroke-linejoin="bevel" d="M0 0L9.33204 0.200748L9.99872 12.8615L0.398718 12.8615Z" sodipodi:nodetypes="ccccc"/><circle id="shape02" transform="matrix(1.00000005230014 0 0 1.00000005230014 8.84999973785406 8.85000018538839)" r="33.6300011686555" cx="33.6300011686555" cy="33.6300011686555" fill="#bb0006" fill-rule="evenodd" stroke-opacity="0" stroke="#000000" stroke-width="0" stroke-linecap="square" stroke-linejoin="bevel"/><circle id="shape03" transform="matrix(0.812348773996834 -0.583172077047476 0.583172077047476 0.812348773996834 4.29855042072608 36.209726924298)" r="27.36" cx="27.36" cy="27.36" fill="none" stroke="#db2424" stroke-width="2.4" stroke-linecap="butt" stroke-linejoin="bevel"/><path id="shape012" transform="matrix(0.996528170290745 -0.0832570006614499 0.0832570006614499 0.996528170290745 69.7450116444528 40.2020898147352)" sodipodi:type="arc" sodipodi:rx="27.36" sodipodi:ry="27.36" sodipodi:cx="-27.36" sodipodi:cy="-1.03028696685215e-13" sodipodi:start="0" sodipodi:end="6.28318530717959" sodipodi:open="true" d="M0 8.74596e-16C1.15111e-28 -3.15262e-14 0 -6.39269e-14 0 -9.63277e-14" fill="none" stroke="#ffffff" stroke-width="2.64" stroke-linecap="butt" stroke-linejoin="bevel" stroke-dasharray="10.56,5.28"/><circle id="shape04" transform="matrix(0.999996708776042 -0.00259588756095922 0.00259588756095922 0.999996708776042 15.3393020864385 14.4948223703773)" r="27.5492737673054" cx="27.5492737673054" cy="27.5492737673054" fill="none" stroke="#ffffff" stroke-width="2.64" stroke-linecap="butt" stroke-linejoin="round" stroke-dasharray="10.56,5.28"/><text id="shape05" krita:useRichText="true" krita:textVersion="2" transform="matrix(1.00000002131116 0 0 1.00000002131116 26.9800005749751 59.9800017257776)" fill="#000000" stroke="#fea711" stroke-width="0.96" stroke-linecap="square" stroke-linejoin="round" font-family="Berlin Sans FB Demi" font-size="48" font-size-adjust="0.222222" font-stretch="normal" font-weight="700" letter-spacing="0" word-spacing="0"><tspan x="0">B</tspan></text>
</svg>
